<?xml version="1.0" encoding="UTF-8"?>
<svg width="40px" height="40px" viewBox="0 0 40 40" version="1.1" xmlns="http://www.w3.org/2000/svg" xmlns:xlink="http://www.w3.org/1999/xlink">
    <!-- Generator: Sketch 57 (83077) - https://sketch.com -->
    <title>左3_slice</title>
    <desc>Created with Sketch.</desc>
    <g id="清华主页" stroke="none" stroke-width="1" fill="none" fill-rule="evenodd">
        <g id="画板" transform="translate(-1312.000000, -641.000000)" fill-rule="nonzero">
            <g id="左3" transform="translate(1312.000000, 641.000000)">
                <rect id="矩形" fill="#000000" opacity="0" x="0" y="0" width="40" height="40"></rect>
                <path d="M22.26,20.7 C22.26,23.5276979 24.5523021,25.82 27.38,25.82 C30.2076979,25.82 32.5,23.5276979 32.5,20.7 C32.5,17.8723021 30.2076979,15.58 27.38,15.58 C24.5523021,15.58 22.26,17.8723021 22.26,20.7 Z" id="路径" fill="#B6E5FD"></path>
                <path d="M13.1,37.616 L6.88,37.616 C4.88,37.616 3.26,35.996 3.26,33.996 L3.26,6.516 C3.26,4.516 4.88,2.896 6.88,2.896 L32.78,2.896 C34.78,2.896 36.42,4.516 36.44,6.516 L36.44,16.816 C36.44,17.436 35.94,17.916 35.34,17.916 C34.72,17.916 34.24,17.416 34.24,16.816 L34.24,6.516 C34.24,5.716 33.6,5.076 32.8,5.076 L6.88,5.076 C6.08,5.036 5.4,5.636 5.36,6.416 L5.36,33.996 C5.36,34.796 6,35.436 6.8,35.436 L13.1,35.436 C13.72,35.436 14.2,35.936 14.2,36.536 C14.2,37.156 13.7,37.636 13.1,37.636 L13.1,37.616 Z" id="路径" fill="#1A89FA"></path>
                <path d="M28.42,11.556 L10.42,11.556 C9.8,11.556 9.32,11.056 9.32,10.456 C9.32,9.856 9.82,9.356 10.42,9.356 L28.42,9.356 C29.04,9.356 29.52,9.856 29.52,10.456 C29.52,11.056 29.02,11.536 28.42,11.556 Z M18.78,18.176 L10.42,18.176 C9.8,18.176 9.32,17.676 9.32,17.076 C9.32,16.476 9.82,15.976 10.42,15.976 L18.78,15.976 C19.4,15.976 19.88,16.476 19.88,17.076 C19.88,17.676 19.4,18.176 18.78,18.176 Z M27.72,28.036 C24.06,28.036 21.08,25.076 21.08,21.396 C21.08,17.716 24.04,14.776 27.72,14.776 C31.38,14.776 34.36,17.736 34.36,21.416 C34.34,25.076 31.38,28.036 27.72,28.036 Z M27.72,16.816 C25.28,16.816 23.3,18.796 23.3,21.236 C23.3,23.676 25.28,25.656 27.72,25.656 C30.16,25.656 32.14,23.676 32.14,21.236 C32.14,20.076 31.68,18.976 30.88,18.156 C30.04,17.296 28.9,16.816 27.72,16.816 L27.72,16.816 Z" id="形状" fill="#1A89FA"></path>
                <path d="M37.28,37.616 C36.66,37.616 36.18,37.116 36.18,36.516 C36.18,31.836 32.38,28.056 27.7,28.056 C23.04,28.056 19.26,31.836 19.24,36.516 C19.24,37.136 18.74,37.616 18.14,37.616 C17.52,37.616 17.04,37.116 17.04,36.516 C17.04,30.636 21.82,25.856 27.7,25.856 C33.58,25.856 38.36,30.636 38.36,36.516 C38.36,37.096 37.88,37.596 37.28,37.616 Z" id="路径" fill="#1A89FA"></path>
            </g>
        </g>
    </g>
</svg>