<?xml version="1.0" encoding="UTF-8"?>
<svg width="40px" height="40px" viewBox="0 0 40 40" version="1.1" xmlns="http://www.w3.org/2000/svg" xmlns:xlink="http://www.w3.org/1999/xlink">
    <!-- Generator: Sketch 57 (83077) - https://sketch.com -->
    <title>左6_slice</title>
    <desc>Created with Sketch.</desc>
    <g id="清华主页" stroke="none" stroke-width="1" fill="none" fill-rule="evenodd">
        <g id="画板" transform="translate(-1312.000000, -835.000000)" fill-rule="nonzero">
            <g id="左6" transform="translate(1312.000000, 835.000000)">
                <rect id="矩形" fill="#000000" opacity="0" x="0" y="0" width="40" height="40"></rect>
                <path d="M8.66,8.26 L30.08,8.26 C31.48,8.26 32.6,9.38 32.6,10.78 L32.6,23.38 C32.6,24.78 31.48,25.9 30.08,25.9 L8.66,25.9 C7.26,25.9 6.14,24.78 6.14,23.38 L6.14,10.8 C6.14,9.4 7.28,8.26 8.66,8.26 Z" id="路径" fill="#B6E5FD"></path>
                <path d="M34.36,4.44 L4.86,4.44 C3.48,4.44 2.36,5.56 2.36,6.94 L2.36,27.14 C2.36,28.52 3.48,29.64 4.86,29.64 L18.36,29.64 L18.36,35.08 L6.32,35.08 C5.64,35.08 5.06,35.62 5.04,36.3 C5.02,36.98 5.56,37.56 6.26,37.58 L32.9,37.58 C33.58,37.58 34.16,37.04 34.18,36.36 C34.2,35.68 33.66,35.1 32.96,35.08 L20.86,35.08 L20.86,29.64 L34.36,29.64 C35.74,29.64 36.86,28.52 36.86,27.14 L36.86,6.94 C36.84,5.56 35.72,4.44 34.36,4.44 Z M34.36,27.12 L4.86,27.12 L4.86,6.94 L34.36,6.94 L34.36,27.12 Z" id="形状" fill="#0972E7"></path>
                <path d="M10.04,9.92 L8.72,9.92 C8.26,9.92 7.9,10.3 7.88,10.76 L7.88,12.08 C7.88,12.54 8.26,12.9 8.72,12.92 L10.04,12.92 C10.5,12.92 10.86,12.54 10.88,12.08 L10.88,10.76 C10.88,10.3 10.5,9.92 10.04,9.92 L10.04,9.92 Z M13.82,9.92 L12.5,9.92 C12.04,9.92 11.68,10.3 11.66,10.76 L11.66,12.08 C11.66,12.54 12.04,12.9 12.5,12.92 L13.82,12.92 C14.28,12.92 14.64,12.54 14.66,12.08 L14.66,10.76 C14.66,10.3 14.28,9.92 13.82,9.92 L13.82,9.92 Z M17.6,9.92 L16.28,9.92 C15.82,9.92 15.46,10.3 15.44,10.76 L15.44,12.08 C15.44,12.54 15.82,12.9 16.28,12.92 L17.6,12.92 C18.06,12.92 18.42,12.54 18.44,12.08 L18.44,10.76 C18.44,10.3 18.06,9.92 17.6,9.92 L17.6,9.92 Z" id="形状" fill="#0972E7"></path>
            </g>
        </g>
    </g>
</svg>