<?xml version="1.0" encoding="UTF-8"?>
<svg width="40px" height="40px" viewBox="0 0 40 40" version="1.1" xmlns="http://www.w3.org/2000/svg" xmlns:xlink="http://www.w3.org/1999/xlink">
    <!-- Generator: Sketch 57 (83077) - https://sketch.com -->
    <title>左4_slice</title>
    <desc>Created with Sketch.</desc>
    <g id="清华主页" stroke="none" stroke-width="1" fill="none" fill-rule="evenodd">
        <g id="画板" transform="translate(-562.000000, -835.000000)" fill-rule="nonzero">
            <g id="左4" transform="translate(562.000000, 835.000000)">
                <rect id="矩形" fill="#000000" opacity="0" x="0" y="0" width="40" height="40"></rect>
                <path d="M4.2786,28.5536 L8.8986,28.5536 L8.8986,34.3336 L4.2786,34.3336 L4.2786,28.5536 Z M13.5186,19.3136 L18.1386,19.3136 L18.1386,34.3336 L13.5186,34.3336 L13.5186,19.3136 Z M21.6186,23.9336 L26.2386,23.9336 L26.2386,34.3336 L21.6186,34.3336 L21.6186,23.9336 Z M31.9986,13.5336 L36.6186,13.5336 L36.6186,33.1736 L31.9986,33.1736 L31.9986,13.5336 Z" id="形状" fill="#B5E5FD"></path>
                <path d="M6.6376,24.6644 C7.9776,24.6644 9.0776,23.5644 9.0576,22.2244 C9.0576,21.9044 8.9976,21.6044 8.8776,21.3044 L14.6576,15.5244 C14.9576,15.6444 15.2576,15.7044 15.5776,15.7044 C16.1576,15.7044 16.6976,15.4844 17.1376,15.1044 L22.1376,17.6044 C22.1376,17.6644 22.0976,17.7044 22.0976,17.7644 C22.0976,19.1044 23.1776,20.2044 24.5176,20.2044 C25.8576,20.2044 26.9576,19.1244 26.9576,17.7844 C26.9576,17.4644 26.8976,17.1444 26.7776,16.8444 L32.5976,9.5644 C33.8376,10.0644 35.2576,9.4644 35.7576,8.2244 C36.1176,7.3244 35.9176,6.2844 35.2176,5.6044 C34.2576,4.6844 32.7376,4.6844 31.7776,5.6044 C31.0776,6.3044 30.8776,7.3444 31.2576,8.2644 L25.4376,15.5444 C24.6176,15.2444 23.6776,15.3844 22.9976,15.9644 L17.9776,13.4644 C17.9776,13.4044 18.0176,13.3644 18.0176,13.3044 C18.0176,12.6644 17.7576,12.0444 17.3176,11.5844 C16.3576,10.6644 14.8376,10.6644 13.8776,11.5844 C13.1976,12.2844 12.9776,13.3244 13.3576,14.2244 L7.5576,20.0244 C6.6576,19.6644 5.6376,19.8844 4.9176,20.5444 C3.9576,21.4844 3.9576,23.0244 4.8976,23.9844 C5.3776,24.4244 5.9976,24.6844 6.6376,24.6644 L6.6376,24.6644 Z M33.1176,6.9244 C33.3376,6.7244 33.6976,6.7244 33.8976,6.9644 C34.0976,7.1844 34.0976,7.5044 33.8976,7.7244 C33.6776,7.9244 33.3376,7.9244 33.1176,7.7244 C32.8976,7.4844 32.8976,7.1444 33.1176,6.9244 Z M24.1576,17.3644 C24.3776,17.1444 24.7176,17.1444 24.9376,17.3644 C25.1576,17.5844 25.1576,17.9244 24.9376,18.1444 C24.7176,18.3444 24.3776,18.3444 24.1576,18.1444 C23.9376,17.9244 23.9376,17.5844 24.1576,17.3644 Z M15.1976,12.8844 C15.4176,12.6644 15.7576,12.6644 15.9776,12.8844 C16.1976,13.1044 16.1976,13.4444 15.9776,13.6644 C15.7576,13.8644 15.4176,13.8644 15.1976,13.6644 C15.0176,13.4644 15.0176,13.1044 15.1976,12.8844 Z M6.2576,21.8444 C6.4776,21.6244 6.8176,21.6244 7.0376,21.8444 C7.2576,22.0644 7.2576,22.4244 7.0376,22.6244 C6.8176,22.8244 6.4776,22.8244 6.2576,22.6244 C6.0776,22.4244 6.1176,22.0844 6.2576,21.8444 Z" id="形状" fill="#1A89FA"></path>
                <path d="M37.2376,33.2444 L36.6776,33.2444 L36.6776,13.2844 C36.6776,12.7644 36.2576,12.3444 35.7376,12.3444 L31.2576,12.3444 C30.7376,12.3444 30.3176,12.7644 30.3176,13.2844 L30.3176,33.2444 L27.7176,33.2444 L27.7176,23.7244 C27.7176,23.2044 27.2976,22.7844 26.7776,22.7844 L22.2976,22.7844 C21.7776,22.7844 21.3576,23.2044 21.3576,23.7244 L21.3576,33.2444 L18.7776,33.2444 L18.7776,19.2644 C18.7776,18.7444 18.3576,18.3244 17.8376,18.3244 L13.3576,18.3244 C12.8376,18.3244 12.4176,18.7444 12.4176,19.2644 L12.4176,33.2444 L9.8176,33.2444 L9.8176,28.2044 C9.8176,27.6844 9.3976,27.2644 8.8776,27.2644 L4.3976,27.2644 C3.8776,27.2644 3.4576,27.6844 3.4576,28.2044 L3.4576,33.2444 L2.8976,33.2444 C2.3776,33.2444 1.9576,33.6644 1.9576,34.1844 C1.9576,34.7044 2.3776,35.1244 2.8976,35.1244 L37.2176,35.1244 C37.7376,35.1244 38.1576,34.7044 38.1576,34.1844 C38.1776,33.6644 37.7576,33.2444 37.2376,33.2444 Z M5.3376,33.2444 L5.3376,29.1444 L7.9376,29.1444 L7.9376,33.2444 L5.3376,33.2444 Z M14.2976,33.2444 L14.2976,20.1844 L16.8976,20.1844 L16.8976,33.2444 L14.2976,33.2444 Z M23.2576,33.2444 L23.2576,24.6644 L25.8576,24.6644 L25.8576,33.2444 L23.2576,33.2444 Z M32.2176,33.2444 L32.2176,14.2244 L34.8176,14.2244 L34.8176,33.2444 L32.2176,33.2444 Z" id="形状" fill="#1A89FA"></path>
            </g>
        </g>
    </g>
</svg>