<?xml version="1.0" encoding="UTF-8"?>
<svg width="40px" height="40px" viewBox="0 0 40 40" version="1.1" xmlns="http://www.w3.org/2000/svg" xmlns:xlink="http://www.w3.org/1999/xlink">
    <!-- Generator: Sketch 57 (83077) - https://sketch.com -->
    <title>左1_slice</title>
    <desc>Created with Sketch.</desc>
    <g id="清华主页" stroke="none" stroke-width="1" fill="none" fill-rule="evenodd">
        <g id="画板" transform="translate(-562.000000, -641.000000)" fill-rule="nonzero">
            <g id="左1" transform="translate(562.000000, 641.000000)">
                <rect id="矩形" fill="#000000" opacity="0" x="0" y="0" width="40" height="40"></rect>
                <path d="M10.1838,9.0354 L22.6838,9.0354 C24.7438,9.0354 26.4238,10.7154 26.4238,12.7754 L26.4238,30.2554 C26.4238,32.3154 24.7438,33.9954 22.6838,33.9954 L10.1838,33.9954 C8.1238,33.9954 6.44362326,32.3154 6.44362326,30.2554 L6.44362326,12.7754 C6.4238,10.6954 8.1038,9.0354 10.1838,9.0354 Z" id="路径" fill="#B5E5FD"></path>
                <path d="M33.18,26.56 L34.12,27.5 L24.24,27.5 C23.52,27.5 22.92,28.08 22.92,28.82 C22.92,29.54 23.5,30.14 24.24,30.14 L34.12,30.14 L33.18,31.08 C32.68,31.6 32.7,32.44 33.22,32.94 C33.72,33.42 34.52,33.42 35.02,32.94 L38.2,29.76 C38.22,29.74 38.22,29.72 38.24,29.72 C38.26,29.72 38.26,29.7 38.26,29.7 L38.28,29.68 L38.3,29.66 L38.32,29.64 C38.32,29.64 38.34,29.62 38.34,29.6 C38.34,29.58 38.34,29.58 38.36,29.58 C38.36,29.56 38.38,29.56 38.38,29.54 C38.38,29.54 38.38,29.52 38.4,29.52 C38.4,29.52 38.42,29.5 38.42,29.48 C38.42,29.46 38.42,29.46 38.44,29.46 C38.46,29.46 38.46,29.44 38.46,29.42 L38.48,29.4 C38.48,29.38 38.48,29.38 38.5,29.36 C38.5,29.36 38.5,29.34 38.52,29.34 C38.52,29.34 38.52,29.32 38.54,29.32 C38.54,29.3 38.54,29.3 38.56,29.28 C38.58,29.26 38.56,29.26 38.56,29.26 L38.58,29.22 L38.58,29.2 C38.58,29.18 38.58,29.18 38.6,29.16 L38.6,29.14 L38.6,29.1 L38.6,29.08 L38.6,29.04 L38.6,29.02 L38.6,28.98 L38.6,28.94 L38.6,28.78 L38.6,28.74 L38.6,28.7 L38.6,28.66 L38.6,28.64 L38.6,28.6 L38.6,28.58 L38.6,28.54 L38.6,28.52 C38.6,28.52 38.6,28.5 38.58,28.48 L38.58,28.46 L38.56,28.42 L38.56,28.4 C38.56,28.4 38.56,28.38 38.54,28.36 C38.52,28.34 38.54,28.34 38.52,28.34 C38.5,28.34 38.52,28.32 38.5,28.32 C38.48,28.32 38.5,28.3 38.48,28.28 L38.46,28.26 C38.46,28.24 38.44,28.24 38.44,28.22 C38.44,28.2 38.44,28.2 38.42,28.2 C38.4,28.2 38.4,28.18 38.4,28.16 C38.4,28.14 38.4,28.14 38.38,28.14 C38.38,28.12 38.36,28.12 38.36,28.1 C38.36,28.1 38.36,28.08 38.34,28.08 C38.34,28.08 38.32,28.06 38.32,28.04 C38.32,28.02 38.3,28.02 38.3,28.02 L38.28,28 L38.26,27.98 L38.24,27.96 C38.24,27.96 38.22,27.92 38.2,27.92 L35.02,24.76 C34.5,24.26 33.66,24.3 33.18,24.82 C32.72,25.28 32.72,26.06 33.18,26.56 L33.18,26.56 Z M25.6,11.78 C25.6,11.06 25.02,10.48 24.3,10.46 L8.64,10.46 C7.92,10.46 7.32,11.04 7.32,11.78 C7.32,12.5 7.9,13.1 8.64,13.1 L24.3,13.1 C25.02,13.1 25.6,12.52 25.6,11.78 Z M25.6,19.64 C25.6,18.92 25.02,18.34 24.3,18.32 L8.64,18.32 C7.92,18.32 7.32,18.9 7.32,19.64 C7.32,20.36 7.9,20.96 8.64,20.96 L24.3,20.96 C25.02,20.96 25.6,20.36 25.6,19.64 Z M8.64,26.18 C7.92,26.18 7.32,26.76 7.32,27.5 C7.32,28.22 7.9,28.82 8.64,28.82 L16.48,28.82 C17.2,28.82 17.8,28.24 17.8,27.5 C17.8,26.78 17.22,26.18 16.48,26.18 L8.64,26.18 Z" id="形状" fill="#1A89FA"></path>
                <path d="M24.24,35.34 L5.94,35.34 C5.22,35.34 4.64,34.76 4.64,34.02 L4.64,7.86 C4.64,7.14 5.22,6.56 5.94,6.54 L26.92,6.54 C27.64,6.54 28.22,7.12 28.22,7.86 L28.22,20.96 C28.22,21.68 28.8,22.26 29.52,22.26 C30.24,22.26 30.82,21.68 30.82,20.96 L30.82,6.56 C30.82,5.12 29.66,3.94 28.22,3.94 L4.64,3.94 C3.2,3.94 2.04,5.12 2.04,6.56 L2.04,35.36 C2.04,36.8 3.2,37.98 4.64,37.98 L24.22,37.98 C24.94,37.98 25.54,37.4 25.54,36.66 C25.54,35.94 24.96,35.36 24.24,35.34 Z" id="路径" fill="#1A89FA"></path>
                <path d="M20.32,32.7 C20.32,33.42 20.9,34 21.62,34.02 L24.24,34.02 C24.96,34.02 25.56,33.44 25.56,32.7 C25.56,31.98 24.98,31.38 24.24,31.38 L21.62,31.38 C20.92,31.4 20.32,31.98 20.32,32.7 Z" id="路径" fill="#1A89FA"></path>
            </g>
        </g>
    </g>
</svg>