<?xml version="1.0" encoding="UTF-8"?>
<svg width="40px" height="40px" viewBox="0 0 40 40" version="1.1" xmlns="http://www.w3.org/2000/svg" xmlns:xlink="http://www.w3.org/1999/xlink">
    <!-- Generator: Sketch 57 (83077) - https://sketch.com -->
    <title>左5_slice</title>
    <desc>Created with Sketch.</desc>
    <g id="清华主页" stroke="none" stroke-width="1" fill="none" fill-rule="evenodd">
        <g id="画板" transform="translate(-939.000000, -835.000000)" fill-rule="nonzero">
            <g id="左5" transform="translate(939.000000, 835.000000)">
                <rect id="矩形" fill="#000000" opacity="0" x="0" y="0" width="40" height="40"></rect>
                <path d="M20.64,28.48 C18.26,28.48 16.34,30.4 16.34,32.78 C16.34,35.16 18.26,37.08 20.64,37.08 C23.02,37.08 24.94,35.16 24.94,32.78 C24.96,30.4 23.02,28.48 20.64,28.48 Z M20.64,34.94 C19.44,34.94 18.48,33.98 18.48,32.78 C18.48,31.58 19.44,30.62 20.64,30.62 C21.84,30.62 22.8,31.58 22.8,32.78 C22.8,33.98 21.84,34.94 20.64,34.94 Z M34.66,28.48 C32.28,28.48 30.36,30.4 30.36,32.78 C30.36,35.16 32.28,37.08 34.66,37.08 C37.04,37.08 38.96,35.16 38.96,32.78 C38.96,30.4 37.04,28.48 34.66,28.48 Z M34.66,34.94 C33.46,34.94 32.5,33.98 32.5,32.78 C32.5,31.58 33.46,30.62 34.66,30.62 C35.86,30.62 36.82,31.58 36.82,32.78 C36.8,33.98 35.84,34.94 34.66,34.94 Z M6.64,28.48 C4.26,28.48 2.34,30.4 2.34,32.78 C2.34,35.16 4.26,37.08 6.64,37.08 C9.02,37.08 10.94,35.16 10.94,32.78 C10.94,30.4 9.02,28.48 6.64,28.48 Z M6.64,34.94 C5.44,34.94 4.48,33.98 4.48,32.78 C4.48,31.58 5.44,30.62 6.64,30.62 C7.84,30.62 8.8,31.6 8.8,32.78 C8.8,33.98 7.82,34.94 6.64,34.94 L6.64,34.94 Z M33.58,16.62 L21.72,16.62 L21.72,13.44 C24.64,12.84 26.52,10 25.92,7.08 C25.32,4.16 22.48,2.28 19.56,2.88 C16.64,3.48 14.76,6.32 15.36,9.24 C15.8,11.36 17.44,13 19.56,13.44 L19.56,16.62 L7.72,16.62 C6.52,16.62 5.56,17.58 5.56,18.78 L5.56,25.24 C5.56,25.84 6.04,26.32 6.64,26.32 C7.24,26.32 7.72,25.84 7.72,25.24 L7.72,19.86 C7.72,19.26 8.2,18.78 8.8,18.78 L32.5,18.78 C33.1,18.78 33.58,19.26 33.58,19.86 L33.58,25.24 C33.58,25.84 34.06,26.32 34.66,26.32 C35.26,26.32 35.74,25.84 35.74,25.24 L35.74,18.78 C35.74,17.58 34.76,16.62 33.58,16.62 Z M17.42,8.16 C17.42,6.38 18.86,4.92 20.66,4.92 C22.46,4.92 23.9,6.36 23.9,8.16 C23.9,9.94 22.46,11.4 20.66,11.4 C18.86,11.4 17.42,9.96 17.42,8.16 L17.42,8.16 Z" id="形状" fill="#1A89FA"></path>
                <path d="M10.94,20.06 L30.1,20.06 C31.28,20.06 32.22,21.02 32.22,22.18 L32.22,24.3 C32.22,25.48 31.26,26.42 30.1,26.42 L10.94,26.42 C9.76,26.42 8.82,25.46 8.82,24.3 L8.82,22.2 C8.82,21.02 9.76,20.06 10.94,20.06 L10.94,20.06 Z" id="路径" fill="#B5E5FD"></path>
            </g>
        </g>
    </g>
</svg>