<?xml version="1.0" encoding="UTF-8"?>
<svg width="40px" height="40px" viewBox="0 0 40 40" version="1.1" xmlns="http://www.w3.org/2000/svg" xmlns:xlink="http://www.w3.org/1999/xlink">
    <!-- Generator: Sketch 57 (83077) - https://sketch.com -->
    <title>左2_slice</title>
    <desc>Created with Sketch.</desc>
    <g id="清华主页" stroke="none" stroke-width="1" fill="none" fill-rule="evenodd">
        <g id="画板" transform="translate(-939.000000, -641.000000)" fill-rule="nonzero">
            <g id="左2" transform="translate(939.000000, 641.000000)">
                <rect id="矩形" fill="#000000" opacity="0" x="0" y="0" width="40" height="40"></rect>
                <path d="M10.62,10.3 L30.54,10.3 C32.12,10.3 33.38,11.58 33.38,13.14 L33.38,30.22 C33.38,31.8 32.1,33.06 30.54,33.06 L10.62,33.06 C9.04,33.06 7.78,31.78 7.78,30.22 L7.78,13.16 C7.78,11.58 9.06,10.3 10.62,10.3 Z" id="路径" fill="#B5E5FD"></path>
                <path d="M36.7376,16.68 C36.1176,16.68 35.6176,16.18 35.6176,15.56 L35.6176,12.84 C35.6376,12.22 36.1576,11.74 36.7776,11.76 C37.3776,11.78 37.8376,12.26 37.8576,12.84 L37.8576,15.54 C37.8576,16.18 37.3576,16.68 36.7376,16.68 L36.7376,16.68 Z M15.4376,9.36 C14.8176,9.36 14.3176,8.86 14.3176,8.24 L14.3176,2.9 C14.3376,2.28 14.8576,1.8 15.4776,1.82 C16.0776,1.84 16.5376,2.32 16.5576,2.9 L16.5576,8.24 C16.5576,8.86 16.0576,9.36 15.4376,9.36 Z M20.5376,9.36 C19.9176,9.36 19.4176,8.86 19.4176,8.24 L19.4176,2.9 C19.4376,2.28 19.9576,1.8 20.5776,1.82 C21.1776,1.84 21.6376,2.32 21.6576,2.9 L21.6576,8.24 C21.6576,8.86 21.1576,9.36 20.5376,9.36 Z M25.6376,9.36 C25.0176,9.36 24.5176,8.86 24.5176,8.24 L24.5176,2.9 C24.4976,2.28 24.9776,1.76 25.5976,1.74 C26.2176,1.72 26.7376,2.2 26.7576,2.82 L26.7576,8.24 C26.7576,8.86 26.2576,9.36 25.6376,9.36 Z M29.2576,19.48 C28.6376,19.48 28.1376,18.98 28.1376,18.36 L28.1376,14.64 L24.4976,14.64 C23.8776,14.66 23.3576,14.18 23.3376,13.56 C23.3176,12.94 23.7976,12.42 24.4176,12.4 L29.1376,12.4 C29.8376,12.4 30.4176,12.98 30.4176,13.68 L30.4176,18.38 C30.3976,18.98 29.8976,19.48 29.2576,19.48 C29.2776,19.48 29.2576,19.48 29.2576,19.48 Z M12.9176,30.56 C12.2976,30.56 11.7976,30.06 11.7976,29.44 L11.7976,24.1 C11.7776,23.48 12.2576,22.96 12.8776,22.94 C13.4976,22.92 14.0176,23.4 14.0376,24.02 L14.0376,29.44 C14.0376,30.06 13.5376,30.56 12.9176,30.56 Z M17.9976,30.56 C17.3776,30.56 16.8776,30.06 16.8776,29.44 L16.8776,20.4 C16.8976,19.78 17.4176,19.3 18.0376,19.32 C18.6376,19.34 19.0976,19.82 19.1176,20.4 L19.1176,29.44 C19.1176,30.06 18.6176,30.56 17.9976,30.56 Z M23.0776,30.56 C22.4576,30.56 21.9576,30.06 21.9576,29.44 L21.9576,26.26 C21.9376,25.64 22.4176,25.12 23.0376,25.1 C23.6576,25.08 24.1776,25.56 24.1976,26.18 L24.1976,29.44 C24.2176,30.06 23.7176,30.56 23.0776,30.56 Z M28.1776,30.56 C27.5576,30.56 27.0576,30.06 27.0576,29.44 L27.0576,22.68 C27.0776,22.06 27.5976,21.58 28.2176,21.6 C28.8176,21.62 29.2776,22.1 29.2976,22.68 L29.2976,29.44 C29.2976,30.06 28.7976,30.56 28.1776,30.56 Z" id="形状" fill="#1A89FA"></path>
                <path d="M12.3576,20.82 C11.7376,20.82 11.2376,20.32 11.2376,19.7 C11.2376,19.4 11.3576,19.12 11.5576,18.9 L17.0776,13.38 C17.5176,12.94 18.2376,12.94 18.6776,13.38 L23.2776,18 L27.9376,13.34 C28.3176,12.86 29.0376,12.78 29.5176,13.16 C29.9976,13.54 30.0776,14.26 29.6976,14.74 C29.6376,14.8 29.5976,14.86 29.5176,14.92 L24.0776,20.38 C23.6376,20.82 22.9176,20.82 22.4776,20.38 L17.8576,15.76 L13.1376,20.48 C12.9376,20.7 12.6576,20.82 12.3576,20.82 L12.3576,20.82 Z M36.7376,17.84 C36.1176,17.84 35.6176,17.34 35.6176,16.72 L35.6176,13.88 C35.6376,13.26 36.1576,12.78 36.7776,12.8 C37.3776,12.82 37.8376,13.3 37.8576,13.88 L37.8576,16.72 C37.8576,17.34 37.3576,17.84 36.7376,17.84 Z M35.7576,38.94 C35.1376,38.98 34.5976,38.52 34.5576,37.88 C34.5176,37.26 34.9776,36.72 35.6176,36.68 L35.6176,20.16 C35.6376,19.54 36.1576,19.06 36.7776,19.08 C37.3776,19.1 37.8376,19.58 37.8576,20.16 L37.8576,36.82 C37.8576,38 36.9176,38.94 35.7576,38.94 Z" id="形状" fill="#1A89FA"></path>
                <path d="M35.7576,38.94 C35.1376,38.98 34.5976,38.52 34.5576,37.88 C34.5176,37.26 34.9776,36.72 35.6176,36.68 L35.6176,22.28 C35.5976,21.66 36.0776,21.14 36.6976,21.12 C37.3176,21.1 37.8376,21.58 37.8576,22.2 L37.8576,36.8 C37.8776,37.98 36.9376,38.94 35.7576,38.94 C35.7776,38.94 35.7776,38.94 35.7576,38.94 Z" id="路径" fill="#1A89FA"></path>
                <path d="M35.7576,38.94 C35.1376,38.98 34.5976,38.52 34.5576,37.88 C34.5176,37.26 34.9776,36.72 35.6176,36.68 L35.6176,24.18 C35.5976,23.56 36.0776,23.04 36.6976,23.02 C37.3176,23 37.8376,23.48 37.8576,24.1 L37.8576,36.82 C37.8776,37.98 36.9376,38.94 35.7576,38.94 C35.7776,38.94 35.7576,38.94 35.7576,38.94 L35.7576,38.94 Z" id="路径" fill="#1A89FA"></path>
                <path d="M35.7576,38.94 L5.3176,38.94 C4.1576,38.94 3.2176,38 3.2176,36.84 L3.2176,6.54 C3.2176,5.38 4.1576,4.44 5.3176,4.44 L35.7576,4.44 C36.9176,4.44 37.8576,5.38 37.8576,6.54 L37.8576,10.08 C37.8376,10.7 37.3176,11.18 36.6976,11.16 C36.0976,11.14 35.6376,10.66 35.6176,10.08 L35.6176,6.7 L5.4776,6.7 L5.4776,36.68 L35.5976,36.68 L35.5976,26.54 C35.5776,25.92 36.0576,25.4 36.6776,25.38 C37.2976,25.36 37.8176,25.84 37.8376,26.46 L37.8376,36.82 C37.8776,37.98 36.9376,38.94 35.7576,38.94 Z" id="路径" fill="#1A89FA"></path>
            </g>
        </g>
    </g>
</svg>