<?xml version="1.0" encoding="UTF-8"?>
<svg width="70px" height="70px" viewBox="0 0 70 70" version="1.1" xmlns="http://www.w3.org/2000/svg" xmlns:xlink="http://www.w3.org/1999/xlink">
    <!-- Generator: Sketch 57 (83077) - https://sketch.com -->
    <title>启用ipv6的程序_slice</title>
    <desc>Created with Sketch.</desc>
    <g id="清华主页" stroke="none" stroke-width="1" fill="none" fill-rule="evenodd">
        <g id="画板" transform="translate(-309.000000, -225.000000)" fill-rule="nonzero">
            <g id="启用IPv6的程序" transform="translate(309.000000, 225.000000)">
                <rect id="矩形" fill="#000000" opacity="0" x="0" y="0" width="70" height="70"></rect>
                <path d="M46.2424583,11.2935404 L24.1468908,11.2935404 L24.1468908,33.3842813 L46.2376317,33.3842813 L46.2376317,11.2935404 L46.2424583,11.2935404 Z M38.7877081,28.6525621 L31.601641,28.6525621 L31.601641,27.0734454 L38.7877081,27.0734454 L38.7877081,28.6525621 Z" id="形状" fill="#3E8AF1" opacity="0.3"></path>
                <path d="M11.4970638,58.7064596 L33.5878047,58.7064596 L33.5878047,36.6165232 L11.4970638,36.6165232 L11.4970638,58.7064596 L11.4970638,58.7064596 Z M18.951814,52.3956238 L26.1378811,52.3956238 L26.1378811,53.9747406 L18.951814,53.9747406 L18.951814,52.3956238 Z M36.4121953,36.6165232 L36.4121953,58.7072641 L58.5029362,58.7072641 L58.5029362,36.6165232 L36.4121953,36.6165232 Z M51.048186,53.9747406 L43.8621189,53.9747406 L43.8621189,52.3956238 L51.048186,52.3956238 L51.048186,53.9747406 Z" id="形状" fill="#3E8AF1"></path>
            </g>
        </g>
    </g>
</svg>