<?xml version="1.0" encoding="UTF-8"?>
<svg width="70px" height="70px" viewBox="0 0 70 70" version="1.1" xmlns="http://www.w3.org/2000/svg" xmlns:xlink="http://www.w3.org/1999/xlink">
    <!-- Generator: Sketch 57 (83077) - https://sketch.com -->
    <title>西雅图internet_slice</title>
    <desc>Created with Sketch.</desc>
    <g id="清华主页" stroke="none" stroke-width="1" fill="none" fill-rule="evenodd">
        <g id="画板" transform="translate(-767.000000, -350.000000)" fill-rule="nonzero">
            <g id="西雅图internet" transform="translate(767.000000, 350.000000)">
                <rect id="矩形" fill="#000000" opacity="0" x="0" y="0" width="70" height="70"></rect>
                <g id="编组-12" transform="translate(7.000000, 13.000000)">
                    <g id="编组-11" transform="translate(1.485687, 1.187814)">
                        <path d="M50.0674581,40.2799453 L2.64683914,40.2799453 C1.18689453,40.2799453 -4.29878355e-13,39.0930508 -4.29878355e-13,37.6331062 L-4.29878355e-13,2.64683914 C-4.29878355e-13,1.18689453 1.18689453,-7.10542736e-14 2.64683914,-7.10542736e-14 L50.0674581,-7.10542736e-14 C51.5274027,-7.10542736e-14 52.7142977,1.18689453 52.7142977,2.64683914 L52.7142977,37.6266706 C52.7152166,39.0930508 51.528322,40.2799453 50.0674581,40.2799453 Z" id="路径" fill="#E5EBFC"></path>
                        <path d="M45.9910133,31.3934059 L6.71684844,31.3934059 C5.43709852,31.3934059 4.39914039,30.3554477 4.39914039,29.0756978 L4.39914039,13.5716009 C4.39914039,12.291851 5.43709852,11.2538929 6.71684844,11.2538929 L45.9910133,11.2538929 C47.2707632,11.2538929 48.3087511,12.291851 48.3087511,13.5716009 L48.3087511,29.0701817 C48.3151569,30.3563672 47.2771988,31.3934059 45.9910133,31.3934059 L45.9910133,31.3934059 Z" id="路径" fill="#3E8AF1" opacity="0.3"></path>
                    </g>
                    <path d="M54.0207086,3.55516742 L1.65944586,3.55516742 C0.745601406,3.55516742 6.64357458e-13,2.80956602 6.64357458e-13,1.89572156 L6.64357458e-13,1.65944586 C6.64357458e-13,0.745601406 0.745601406,-9.23705556e-14 1.65944586,-9.23705556e-14 L54.0207086,-9.23705556e-14 C54.934553,-9.23705556e-14 55.6801545,0.745601406 55.6801545,1.65944586 L55.6801545,1.89572156 C55.6792351,2.81508211 54.9400692,3.55516742 54.0207086,3.55516742 Z M11.253893,25.4727237 L15.9950355,25.4727237 L15.9950355,32.5821391 L11.253893,32.5821391 L11.253893,25.4727237 Z M18.3633084,23.1044509 L23.1044509,23.1044509 L23.1044509,32.5812198 L18.3633084,32.5812198 L18.3633084,23.1044509 Z M25.4718044,21.3273269 L30.212947,21.3273269 L30.212947,32.5812198 L25.4718044,32.5812198 L25.4718044,21.3273269 L25.4718044,21.3273269 Z M32.5812198,19.5502029 L37.3223623,19.5502029 L37.3223623,32.5812198 L32.5812198,32.5812198 L32.5812198,19.5502029 L32.5812198,19.5502029 Z M39.6906352,17.1764138 L44.4317777,17.1764138 L44.4317777,32.5757036 L39.6906352,32.5757036 L39.6906352,17.1764138 L39.6906352,17.1764138 Z" id="形状" fill="#3E8AF1"></path>
                    <path d="M46.4267902,8.47006906 C46.4267902,9.12557313 46.9581806,9.65696359 47.6136847,9.65696359 C48.2691888,9.65696359 48.8005792,9.1255732 48.8005792,8.47006906 C48.8005792,7.81456492 48.2691888,7.28317461 47.6136847,7.28317461 C46.9581805,7.28317461 46.4267902,7.814565 46.4267902,8.47006906 Z M43.9969202,9.30300977 L30.9971615,9.30300977 C30.4997874,9.30300977 30.0897526,8.89941047 30.0897526,8.39560086 L30.0897526,8.19058344 C30.0897526,7.69320938 30.4933519,7.28317461 30.9971615,7.28317461 L43.9969202,7.28317461 C44.4942942,7.28317461 44.9043291,7.68677391 44.9043291,8.19058344 L44.9043291,8.39560086 C44.8978935,8.89297492 44.4942942,9.30300977 43.9969202,9.30300977 L43.9969202,9.30300977 Z M47.0850523,37.7333165 L8.59418281,37.7333165 C8.09680875,37.7333165 7.68677391,37.3297172 7.68677391,36.8259076 L7.68677391,36.6208902 C7.68677391,36.1235161 8.0903732,35.7134813 8.59418281,35.7134813 L47.0850523,35.7134813 C47.5824264,35.7134813 47.9924613,36.1170806 47.9924613,36.6208902 L47.9924613,36.8259076 C47.9924613,37.3287978 47.5824264,37.7333165 47.0850523,37.7333165 L47.0850523,37.7333165 Z" id="形状" fill="#FFFFFF"></path>
                    <path d="M20.0227542,12.4407874 C14.405461,13.2424698 11.9939782,17.2563982 11.1922958,21.2712459 C13.1992599,18.4625993 16.0079066,17.1764138 20.0227542,17.1764138 L20.0227542,20.4695634 L25.6400473,14.8522702 L20.0227542,9.22854156 L20.0227542,12.4407874" id="路径" fill="#3E8AF1"></path>
                </g>
            </g>
        </g>
    </g>
</svg>