<?xml version="1.0" encoding="UTF-8"?>
<svg width="70px" height="70px" viewBox="0 0 70 70" version="1.1" xmlns="http://www.w3.org/2000/svg" xmlns:xlink="http://www.w3.org/1999/xlink">
    <!-- Generator: Sketch 57 (83077) - https://sketch.com -->
    <title>加拿大的ipv6部署_slice</title>
    <desc>Created with Sketch.</desc>
    <g id="清华主页" stroke="none" stroke-width="1" fill="none" fill-rule="evenodd">
        <g id="画板" transform="translate(-624.000000, -120.000000)" fill-rule="nonzero">
            <g id="加拿大的IPv6部署" transform="translate(624.000000, 120.000000)">
                <rect id="矩形" fill="#000000" opacity="0" x="0" y="0" width="70" height="70"></rect>
                <g id="编组-10" transform="translate(9.000000, 11.000000)">
                    <g id="编组-9">
                        <path d="M47.4654529,1.3500312e-13 L5.09855903,1.3500312e-13 C2.24854122,0.0340163281 -0.0333117496,2.37195031 0.000704578545,5.22196813 C0.000704578545,5.24403281 0.00162395354,5.26609742 0.00162395354,5.28724273 L0.00162395354,34.3702955 C-0.0691668277,37.2193939 2.18326661,39.5867474 5.03236513,39.6566188 C5.05442981,39.6575382 5.07649442,39.6575382 5.09763966,39.6575382 L18.4761749,39.6575382 L14.0163567,42.8431226 C12.9655275,43.8047738 12.8276235,45.4108967 13.6982579,46.5380328 C14.4484561,47.644943 15.9543688,47.9336222 17.0603597,47.1834239 C17.1090858,47.150327 17.1559732,47.1163105 17.2019411,47.0795362 L26.4396763,40.3259133 L35.3593127,47.0795362 C36.4083031,47.9078801 37.9307643,47.7286048 38.7600275,46.6796143 C38.7958825,46.6336463 38.8308183,46.5867589 38.8639153,46.5380328 C39.7345497,45.4108967 39.5957263,43.8047738 38.5458165,42.8431226 L34.0859983,39.6575382 L47.4645335,39.6575382 C50.3991325,39.6419091 52.7940668,37.3030558 52.8795674,34.3693761 L52.8795674,5.28816203 C52.7949862,2.35448242 50.4000519,0.0156290625 47.4654529,1.3500312e-13 L47.4654529,1.3500312e-13 Z" id="路径" fill="#BFDDFD"></path>
                        <path d="M34.21287,26.4389717 C34.3011286,27.808819 33.2631706,28.9901973 31.8933233,29.0784559 C31.8170164,29.0830527 31.7407095,29.0848915 31.6644025,29.0830527 C30.2485872,29.0159394 29.131564,27.8566257 29.115935,26.4389717 L29.115935,19.8131399 C29.1315641,18.3964052 30.2485872,17.2361722 31.6644025,17.1690589 C33.0360885,17.1313652 34.1788536,18.2125332 34.2165475,19.5842191 C34.2183862,19.6605261 34.2174668,19.736833 34.2119507,19.8131399 L34.2119507,26.4389717 L34.21287,26.4389717 Z M42.176372,26.4389717 C42.1772908,27.8465128 41.0372837,28.9883586 39.6297426,28.9892785 C38.2222015,28.9901973 37.0803558,27.8501902 37.0794358,26.4426491 L37.0794358,13.2194859 C37.078517,11.8119448 38.2185241,10.670099 39.6260652,10.6691791 C41.0336063,10.6682602 42.1754521,11.8082673 42.176372,13.2158084 L42.176372,26.4389717 L42.176372,26.4389717 Z M18.221512,29.0784559 C14.2130998,29.2191181 10.8491595,26.0831791 10.7084973,22.074767 C10.5678351,18.0663548 13.7037741,14.7024145 17.7121863,14.5617523 C21.7205985,14.4210901 25.0845388,17.5570291 25.225201,21.5654413 C25.227959,21.649103 25.2298872,21.7327648 25.2298872,21.8155073 C25.2491043,25.7365802 22.1407462,28.9580196 18.221512,29.0784559 Z" id="形状" fill="#1A89FA"></path>
                    </g>
                    <path d="M14.6543929,21.8201041 C14.6543929,23.6495232 16.1374301,25.1325604 17.9668491,25.1325604 C19.7962682,25.1325604 21.2793054,23.6495232 21.2793054,21.8201041 C21.2793054,19.9906851 19.7962682,18.5076479 17.9668491,18.5076479 C16.1374301,18.5076479 14.6543929,19.9906851 14.6543929,21.8201041 Z" id="路径" fill="#BFDDFD"></path>
                </g>
            </g>
        </g>
    </g>
</svg>