<?xml version="1.0" encoding="UTF-8"?>
<svg width="70px" height="70px" viewBox="0 0 70 70" version="1.1" xmlns="http://www.w3.org/2000/svg" xmlns:xlink="http://www.w3.org/1999/xlink">
    <!-- Generator: Sketch 57 (83077) - https://sketch.com -->
    <title>部署状态_slice</title>
    <desc>Created with Sketch.</desc>
    <g id="清华主页" stroke="none" stroke-width="1" fill="none" fill-rule="evenodd">
        <g id="画板" transform="translate(-465.000000, -350.000000)" fill-rule="nonzero">
            <g id="部署状态" transform="translate(465.000000, 350.000000)">
                <rect id="矩形" fill="#000000" opacity="0" x="0" y="0" width="70" height="70"></rect>
                <path d="M48.398359,44.3455876 L48.398359,33.7824793 L22.2114069,33.7824793 L22.2114069,44.3311077 C15.7935805,44.0165715 10.6403346,38.7659882 10.6403346,32.3932105 C10.6403346,26.2151074 15.3085029,21.2332073 21.6024455,20.4392245 C24.0382913,15.6576301 29.1110933,12.4680235 35.0004022,12.4680235 C42.5106588,12.4680235 48.6002735,17.6478159 50.0217199,24.421205 C55.0969351,24.8194031 59.3596654,29.2027994 59.3596654,34.380983 C59.3596654,39.9613869 54.8934116,44.3455876 49.2076261,44.3455876 L48.398359,44.3455876 L48.398359,44.3455876 Z" id="路径" fill="#3E8AF1" opacity="0.3"></path>
                <path d="M35.3044807,51.5115437 C28.073365,51.5115437 22.2114069,49.466656 22.2114069,46.9439305 L22.2114069,52.9659722 C22.2114069,55.4886976 28.0733649,57.5335854 35.3044807,57.5335854 C42.5355965,57.5335854 48.3975545,55.4886976 48.3975545,52.9659722 L48.3975545,46.9439305 C48.398359,49.4666559 42.5355965,51.5115437 35.3044807,51.5115437 Z M35.3044807,42.1293541 C28.073365,42.1293541 22.2114069,40.0852707 22.2114069,37.5617408 L22.2114069,43.8299413 C22.2114069,46.3526667 28.0733649,48.3975545 35.3044807,48.3975545 C42.5355965,48.3975545 48.3975545,46.3526667 48.3975545,43.8299413 L48.3975545,37.5617408 C48.398359,40.0852707 42.5355965,42.129354 35.3044807,42.1293541 Z M22.2114069,34.0865578 C22.2114069,36.6092833 28.0733649,38.654171 35.3044807,38.654171 C42.5355965,38.654171 48.3975545,36.6092833 48.3975545,34.0865578 C48.3975545,31.5638324 42.5355965,29.5189446 35.3044807,29.5189446 C28.0733649,29.5189446 22.2114069,31.5638323 22.2114069,34.0865578 L22.2114069,34.0865578 Z" id="形状" fill="#3E8AF1"></path>
            </g>
        </g>
    </g>
</svg>