<?xml version="1.0" encoding="UTF-8"?>
<svg width="70px" height="70px" viewBox="0 0 70 70" version="1.1" xmlns="http://www.w3.org/2000/svg" xmlns:xlink="http://www.w3.org/1999/xlink">
    <!-- Generator: Sketch 57 (83077) - https://sketch.com -->
    <title>谷歌ipv6静态_slice</title>
    <desc>Created with Sketch.</desc>
    <g id="清华主页" stroke="none" stroke-width="1" fill="none" fill-rule="evenodd">
        <g id="画板" transform="translate(-309.000000, -120.000000)">
            <g id="谷歌IPv6静态" transform="translate(309.000000, 120.000000)">
                <rect id="矩形" fill="#000000" fill-rule="nonzero" opacity="0" x="0" y="0" width="70" height="70"></rect>
                <g id="编组-3" transform="translate(8.000000, 9.000000)">
                    <path d="M38.7795488,5.28816203 L15.8644863,5.28816203 C11.9866233,5.28816203 8.81390992,8.46087539 8.81390992,12.3387384 L8.81390992,37.0162152 C8.81390992,40.8940781 11.9866233,44.0667915 15.8644863,44.0667915 L38.7795488,44.0667915 L38.7795488,45.8292058 C38.7795488,48.825402 36.4885023,51.1173678 33.4913867,51.1173678 L5.28816211,51.1173678 C2.29196594,51.1173678 6.35935749e-13,48.8263212 6.35935749e-13,45.8292058 L6.35935749e-13,5.28816203 C6.35935749e-13,2.29196586 2.29104656,-1.84741111e-13 5.28816211,-1.84741111e-13 L33.4913867,-1.84741111e-13 C36.4885022,-1.84741111e-13 38.7795488,2.29104656 38.7795488,5.28816203 L38.7795488,5.28816203 Z" id="路径" fill="#BFDDFD" fill-rule="nonzero"></path>
                    <path d="M15.8644863,8.81299055 L49.355873,8.81299055 C51.2948045,8.81299055 52.8816209,10.399807 52.8816209,12.3387384 L52.8816209,37.0162152 C52.8816209,38.9551466 51.2948045,40.541963 49.355873,40.541963 L15.8644863,40.541963 C13.9255548,40.541963 12.3387384,38.9551466 12.3387384,37.0162152 L12.3387384,12.3387384 C12.3396577,10.3998069 13.9255548,8.81299055 15.8644863,8.81299055 Z" id="路径" fill="#1A89FA" fill-rule="nonzero"></path>
                    <text id="ipv6" font-family="PingFangSC-Semibold, PingFang SC" font-size="14" font-weight="500" fill="#FFFFFF">
                        <tspan x="19.1120011" y="28.5586839">ipv6</tspan>
                    </text>
                </g>
            </g>
        </g>
    </g>
</svg>