<?xml version="1.0" encoding="UTF-8"?>
<svg width="70px" height="70px" viewBox="0 0 70 70" version="1.1" xmlns="http://www.w3.org/2000/svg" xmlns:xlink="http://www.w3.org/1999/xlink">
    <!-- Generator: Sketch 57 (83077) - https://sketch.com -->
    <title>采纳趋势_slice</title>
    <desc>Created with Sketch.</desc>
    <g id="清华主页" stroke="none" stroke-width="1" fill="none" fill-rule="evenodd">
        <g id="画板" transform="translate(-624.000000, -350.000000)" fill-rule="nonzero">
            <g id="采纳趋势" transform="translate(624.000000, 350.000000)">
                <rect id="矩形" fill="#000000" opacity="0" x="0" y="0" width="70" height="70"></rect>
                <g id="编组-13" transform="translate(13.000000, 13.000000)">
                    <path d="M38.9340014,43.8590161 L4.92409531,43.8590161 C2.20462672,43.8590161 6.00408612e-13,41.6543894 6.00408612e-13,38.9349208 L6.00408612e-13,4.92409531 C6.00408612e-13,2.20462672 2.20462672,7.10542736e-14 4.92409531,7.10542736e-14 L38.9340014,7.10542736e-14 C41.65347,7.10542736e-14 43.858097,2.20462672 43.858097,4.92409531 L43.858097,38.9340014 C43.8590161,41.65347 41.65347,43.8590161 38.9340014,43.8590161 Z" id="路径" fill="#BFDDFD"></path>
                    <path d="M17.8080145,13.4861004 L25.0452211,33.2872887 C25.3467713,34.0917292 26.4527622,34.1919395 26.8545227,33.387499 L32.5839779,22.9343691 L36.0012412,22.9343691 C36.6043417,22.9343691 37.0061023,22.5326086 37.0061023,21.929508 C37.0061023,21.3264075 36.6043417,20.924647 36.0012412,20.924647 L31.9808773,20.924647 C31.5791168,20.924647 31.2775665,21.125987 31.0762265,21.4275372 L26.1512119,30.5742556 L18.813795,10.5717273 C18.5122448,9.7672868 17.3060437,9.66707656 16.904283,10.4715171 L12.2808187,20.924647 L7.8586943,20.924647 C7.25559375,20.924647 6.8538332,21.3264075 6.8538332,21.929508 C6.8538332,22.5326086 7.25559375,22.9343691 7.8586943,22.9343691 L12.8839192,22.9343691 C13.2856798,22.9343691 13.5872301,22.7330291 13.7885701,22.3312686 C13.7876507,22.3312686 17.8080145,13.4861004 17.8080145,13.4861004 L17.8080145,13.4861004 Z" id="路径" fill="#1A89FA"></path>
                </g>
            </g>
        </g>
    </g>
</svg>