<?xml version="1.0" encoding="UTF-8"?>
<svg width="70px" height="70px" viewBox="0 0 70 70" version="1.1" xmlns="http://www.w3.org/2000/svg" xmlns:xlink="http://www.w3.org/1999/xlink">
    <!-- Generator: Sketch 57 (83077) - https://sketch.com -->
    <title>nz_ipv6指标_slice</title>
    <desc>Created with Sketch.</desc>
    <g id="清华主页" stroke="none" stroke-width="1" fill="none" fill-rule="evenodd">
        <g id="画板" transform="translate(-767.000000, -225.000000)" fill-rule="nonzero">
            <g id="NZ-IPv6指标" transform="translate(767.000000, 225.000000)">
                <rect id="矩形" fill="#000000" opacity="0" x="0" y="0" width="70" height="70"></rect>
                <g id="编组-6" transform="translate(11.000000, 12.000000)">
                    <path d="M2.64959719,-3.55271368e-15 L43.4572555,-3.55271368e-15 C44.9199581,-3.55271368e-15 46.1068527,1.18597516 46.1068527,2.64959719 L46.1068527,10.5239205 C46.1068527,11.9875426 44.9208775,13.1735178 43.4572555,13.1735178 L2.64959719,13.1735178 C1.18597516,13.1735178 -7.31859018e-13,11.9875427 -7.31859018e-13,10.5239205 L-7.31859018e-13,2.64959719 C0.000919374999,1.18597516 1.18689453,-3.55271368e-15 2.64959719,-3.55271368e-15 Z" id="路径" fill="#C0DCFE"></path>
                    <path d="M2.64959719,16.465748 L10.5239206,16.465748 C11.9875427,16.465748 13.1735178,17.6517232 13.1735178,19.1153452 L13.1735178,43.4563361 C13.1735178,44.9190388 11.9875427,46.1059333 10.5239206,46.1059333 L2.64959719,46.1059333 C1.18597516,46.1059333 -9.13047415e-13,44.9199581 -9.13047415e-13,43.4563361 L-9.13047415e-13,19.1153452 C0.000919374999,17.6526426 1.18689453,16.465748 2.64959719,16.465748 Z" id="路径" fill="#1A89FA"></path>
                    <path d="M19.1162646,16.465748 L43.4572555,16.465748 C44.9199581,16.465748 46.1068527,17.6517232 46.1068527,19.1153452 L46.1068527,43.4563361 C46.1068527,44.9190388 44.9208775,46.1059333 43.4572555,46.1059333 L19.1162646,46.1059333 C17.6526426,46.1059333 16.4666674,44.9199581 16.4666674,43.4563361 L16.4666674,19.1153452 C16.4666674,17.6526426 17.653562,16.465748 19.1162646,16.465748 Z" id="路径" fill="#C0DCFE"></path>
                </g>
            </g>
        </g>
    </g>
</svg>