<?xml version="1.0" encoding="UTF-8"?>
<svg width="70px" height="70px" viewBox="0 0 70 70" version="1.1" xmlns="http://www.w3.org/2000/svg" xmlns:xlink="http://www.w3.org/1999/xlink">
    <!-- Generator: Sketch 57 (83077) - https://sketch.com -->
    <title>静态数据_slice</title>
    <desc>Created with Sketch.</desc>
    <g id="清华主页" stroke="none" stroke-width="1" fill="none" fill-rule="evenodd">
        <g id="画板" transform="translate(-465.000000, -120.000000)" fill-rule="nonzero">
            <g id="静态数据" transform="translate(465.000000, 120.000000)">
                <rect id="矩形" fill="#000000" opacity="0" x="0" y="0" width="70" height="70"></rect>
                <g id="编组-14" transform="translate(12.000000, 9.000000)">
                    <path d="M36.784791,32.2842663 L8.80497096,32.2842663 C7.65393151,32.2465725 6.69044159,33.1493845 6.65274784,34.2995047 L6.65274784,38.336417 C6.68952229,39.4874565 7.65209276,40.391188 8.80313221,40.3544134 L36.784791,40.3544134 C37.9358305,40.3921072 38.8993204,39.4892952 38.9370142,38.3391751 L38.9370142,34.3022627 C38.9002397,33.1512233 37.9376692,32.2474918 36.7866297,32.2842663 L36.784791,32.2842663 Z" id="路径" fill="#BFDDFD"></path>
                    <path d="M14.7238144,36.9923118 C14.7164844,37.360905 14.4194357,37.6579537 14.0508424,37.6652838 L10.0157689,37.6652838 C9.6471756,37.6579537 9.35012695,37.360905 9.3427969,36.9923118 L9.3427969,35.6472873 C9.35012695,35.278694 9.6471756,34.9816454 10.0157689,34.9743153 L14.0508424,34.9743153 C14.4194357,34.9816454 14.7164844,35.278694 14.7238144,35.6472873 L14.7238144,36.9923118 L14.7238144,36.9923118 Z" id="路径" fill="#1A89FA"></path>
                    <path d="M30.8659475,8.17124146e-14 C24.5315531,0.00275804688 18.9013889,4.03783172 16.8622471,10.0348208 C15.0584202,8.75403068 12.900106,8.0675865 10.6878214,8.07106656 C4.74415526,8.11151844 -0.0401972384,12.9620648 -7.2475359e-13,18.905731 C0.0370290897,24.2729581 4.02245721,28.7925348 9.3427969,29.499523 L10.6878214,29.5932978 L30.8650282,29.5932978 C39.0372245,29.5932978 45.6621368,22.9683855 45.6621368,14.7961892 C45.6621368,6.62399297 39.0381438,8.17124146e-14 30.8659475,8.17124146e-14 L30.8659475,8.17124146e-14 Z" id="路径" fill="#BFDDFD"></path>
                    <path d="M30.8659475,6.7259824 C33.0080577,6.71776781 35.0628286,7.57093437 36.5696607,9.09339555 L34.6730197,10.9900364 C32.567684,8.89297492 29.161453,8.89849109 27.0634722,11.0038268 C26.60655,11.4625877 26.2360477,12.0004137 25.9694331,12.5906432 L28.1758985,14.7971086 L22.794881,14.7971086 C22.794881,10.3391291 26.4079681,6.7259824 30.8659475,6.7259824 L30.8659475,6.7259824 Z M30.8659475,22.8682348 C28.7238374,22.8764494 26.6690664,22.0232828 25.1622345,20.5008216 L27.0588754,18.6041808 C29.1642111,20.7012423 32.5704421,20.6957261 34.6684229,18.5903904 C35.1253451,18.1316295 35.4958474,17.5938035 35.7624621,17.003574 L33.5559967,14.7971086 L38.9370142,14.7971086 C38.9370142,19.2541687 35.3230077,22.8682348 30.8659475,22.8682348 L30.8659475,22.8682348 Z" id="形状" fill="#1A89FA"></path>
                    <path d="M36.784791,43.0453819 L8.80497096,43.0453819 C7.65393151,43.0076881 6.69044159,43.9105002 6.65274784,45.0606203 L6.65274784,49.0975327 C6.68952229,50.2485721 7.65209276,51.1523036 8.80313221,51.1155291 L36.784791,51.1155291 C37.9358305,51.1532229 38.8993204,50.2504109 38.9370142,49.1002907 L38.9370142,45.0633784 C38.9002397,43.9123389 37.9376692,43.0086074 36.7866297,43.0453819 L36.784791,43.0453819 L36.784791,43.0453819 Z" id="路径" fill="#BFDDFD"></path>
                    <path d="M14.7238144,47.7534275 C14.7164843,48.1220207 14.4194357,48.4190693 14.0508424,48.4263994 L10.0157689,48.4263994 C9.64717563,48.4190693 9.35012699,48.1220207 9.3427969,47.7534275 L9.3427969,46.4084029 C9.35012699,46.0398097 9.64717563,45.7427611 10.0157689,45.735431 L14.0508424,45.735431 C14.4194357,45.7427611 14.7164843,46.0398097 14.7238144,46.4084029 L14.7238144,47.7534275 L14.7238144,47.7534275 Z" id="路径" fill="#1A89FA"></path>
                </g>
            </g>
        </g>
    </g>
</svg>