<?xml version="1.0" encoding="UTF-8"?>
<svg width="70px" height="70px" viewBox="0 0 70 70" version="1.1" xmlns="http://www.w3.org/2000/svg" xmlns:xlink="http://www.w3.org/1999/xlink">
    <!-- Generator: Sketch 57 (83077) - https://sketch.com -->
    <title>apnic_ipv6测量_slice</title>
    <desc>Created with Sketch.</desc>
    <g id="清华主页" stroke="none" stroke-width="1" fill="none" fill-rule="evenodd">
        <g id="画板" transform="translate(-767.000000, -120.000000)" fill-rule="nonzero">
            <g id="APNIC-IPv6测量" transform="translate(767.000000, 120.000000)">
                <rect id="矩形" fill="#000000" opacity="0" x="0" y="0" width="70" height="70"></rect>
                <g id="编组-4" transform="translate(12.000000, 13.000000)">
                    <path d="M43.6820695,24.694501 C42.8289028,36.2287989 33.1379229,45.1006285 21.5732861,44.9351437 C9.80271253,44.6234805 0.329621123,35.16326 0.00232877925,23.3926864 C-0.164994815,11.8225334 8.70407675,2.12235993 20.2429714,1.2554029 C21.1182026,1.22414462 21.8527717,1.90814892 21.88403,2.78246087 C21.8849494,2.81096103 21.8849494,2.84038056 21.8849494,2.86888079 L21.8849494,21.5521266 C21.8849494,22.3850673 22.5524052,23.0653941 23.3853459,23.0810232 L42.125592,23.0810232 C42.9851941,23.0801038 43.6829888,23.7769792 43.6839082,24.6365813 C43.6829889,24.6558879 43.6820695,24.6751945 43.6820695,24.694501 L43.6820695,24.694501 Z" id="路径" fill="#BFDDFD"></path>
                    <path d="M45.0123842,17.6172633 C43.7206826,8.41262509 36.4273951,1.21219298 27.2062085,0.0381695418 C25.8979584,-0.196267411 24.647628,0.673447667 24.413191,1.98169782 C24.3892876,2.11592446 24.3764165,2.25107048 24.3754972,2.38713579 L24.3754972,18.6929152 C24.3911264,19.5727432 25.109147,20.2778928 25.988975,20.2778928 L42.4363359,20.2778928 C43.7786024,20.362474 44.9342386,19.3429031 45.0188198,18.0006367 C45.0261747,17.8737649 45.024336,17.7450544 45.0123842,17.6172633 Z" id="路径" fill="#1A89FA"></path>
                </g>
            </g>
        </g>
    </g>
</svg>