<?xml version="1.0" encoding="UTF-8"?>
<svg width="70px" height="70px" viewBox="0 0 70 70" version="1.1" xmlns="http://www.w3.org/2000/svg" xmlns:xlink="http://www.w3.org/1999/xlink">
    <!-- Generator: Sketch 57 (83077) - https://sketch.com -->
    <title>ripe统计和工具_slice</title>
    <desc>Created with Sketch.</desc>
    <g id="清华主页" stroke="none" stroke-width="1" fill="none" fill-rule="evenodd">
        <g id="画板" transform="translate(-624.000000, -225.000000)" fill-rule="nonzero">
            <g id="RIpe统计和工具" transform="translate(624.000000, 225.000000)">
                <rect id="矩形" fill="#000000" opacity="0" x="0" y="0" width="70" height="70"></rect>
                <g id="编组-7" transform="translate(13.000000, 9.000000)" fill="#3E8AF1">
                    <path d="M20.6065482,1.56319402e-13 C16.3443925,3.14145516 13.5780366,8.19701898 13.5780365,13.8979739 C13.5780365,23.426227 21.3015848,31.1497753 30.8298379,31.1497753 C33.5208063,31.1497753 36.0683545,30.5338038 38.3373364,29.4351678 L38.3373364,47.2845536 C38.3373364,49.401841 36.6208902,51.1182872 34.5036028,51.1182872 L3.83373367,51.1182872 C1.71644625,51.1182872 -1.77635684e-14,49.4018409 -1.77635684e-14,47.2845536 L-1.77635684e-14,3.83373359 C-1.77635684e-14,1.71644617 1.71644625,1.56319402e-13 3.83373367,1.56319402e-13 L20.6065482,1.56319402e-13 L20.6065482,1.56319402e-13 Z" id="路径" opacity="0.3"></path>
                    <path d="M29.1124723,1.9168668 L29.1124723,15.6153395 L42.810945,15.6153395 C42.3319581,22.245768 36.8010848,27.475091 30.0483814,27.475091 C22.9812566,27.475091 17.2527208,21.7456359 17.2527208,14.6794304 C17.2527208,7.92672688 22.4820438,2.39585359 29.1124723,1.9168668 L29.1124723,1.9168668 Z" id="路径"></path>
                    <path d="M31.3097441,0.0330969531 C31.6122137,0.0110322656 31.9165221,9.9475983e-14 32.2245079,9.9475983e-14 C39.1298252,9.9475983e-14 44.7278119,5.59798656 44.7278119,12.5033039 C44.7278119,12.8112897 44.7167795,13.1165174 44.6947148,13.4180677 L31.3097441,13.4180677 L31.3097441,0.0330969531 Z" id="路径" opacity="0.3"></path>
                    <path d="M5.75060047,36.4213889 L23.6413575,36.4213889 C24.4936048,36.4213889 24.9192687,36.8470529 24.9192687,37.6993001 C24.9192687,38.5515473 24.4936047,38.9772113 23.6413575,38.9772113 L5.75060047,38.9772113 C4.8983532,38.9772113 4.4726893,38.5515473 4.4726893,37.6993001 C4.4726893,36.8470528 4.89927258,36.4213889 5.75060047,36.4213889 L5.75060047,36.4213889 Z M5.75060047,42.8109449 L15.3349346,42.8109449 C16.1871819,42.8109449 16.6128458,43.2366089 16.6128458,44.0888562 C16.6128458,44.9411034 16.1871818,45.3667674 15.3349346,45.3667674 L5.75060047,45.3667674 C4.8983532,45.3667674 4.4726893,44.9411034 4.4726893,44.0888562 C4.4726893,43.2375283 4.89927258,42.8109449 5.75060047,42.8109449 Z M5.75060047,30.0318328 L10.8622453,30.0318328 C11.7144926,30.0318328 12.1401566,30.4574968 12.1401566,31.3097441 C12.1401566,32.1619913 11.7144926,32.5876552 10.8622453,32.5876552 L5.75060047,32.5876552 C4.8983532,32.5876552 4.4726893,32.1619912 4.4726893,31.3097441 C4.4726893,30.4574969 4.89927258,30.0318328 5.75060047,30.0318328 Z" id="形状"></path>
                </g>
            </g>
        </g>
    </g>
</svg>