<?xml version="1.0" encoding="UTF-8"?>
<svg width="70px" height="70px" viewBox="0 0 70 70" version="1.1" xmlns="http://www.w3.org/2000/svg" xmlns:xlink="http://www.w3.org/1999/xlink">
    <!-- Generator: Sketch 57 (83077) - https://sketch.com -->
    <title>国家开发个监控平台_slice</title>
    <desc>Created with Sketch.</desc>
    <g id="清华主页" stroke="none" stroke-width="1" fill="none" fill-rule="evenodd">
        <g id="画板" transform="translate(-309.000000, -350.000000)" fill-rule="nonzero">
            <g id="国家开发个监控平台" transform="translate(309.000000, 350.000000)">
                <rect id="矩形" fill="#000000" opacity="0" x="0" y="0" width="70" height="70"></rect>
                <g id="编组-8" transform="translate(12.000000, 11.000000)">
                    <path d="M39.1665996,47.0023098 L32.5600745,47.0023098 L32.5600745,15.4709999 L39.1638415,15.4709999 C42.9221876,15.4709999 45.9661923,18.5177609 45.9661923,22.2733488 L45.9661923,40.1944448 C45.9689485,43.9555489 42.9221876,47.0023098 39.1665996,47.0023098 Z" id="路径" fill="#1A89FA"></path>
                    <path d="M36.1336291,47.0023098 L8.28160008,47.0023098 C3.7068618,47.0023098 4.58300065e-13,43.295448 4.58300065e-13,38.7207097 L4.58300065e-13,8.28160016 C4.58300065e-13,3.70686188 3.70686188,1.0658141e-14 8.28160008,1.0658141e-14 L27.8529483,1.0658141e-14 C32.4276866,1.0658141e-14 36.1345484,3.70686188 36.1345484,8.28160016 L36.1345484,47.0023098 L36.1336291,47.0023098 Z" id="路径" fill="#BFDDFD"></path>
                    <path d="M26.7230541,14.5525587 L8.42869781,14.5525587 C6.95496281,14.5525587 5.76255211,13.3573899 5.76255211,11.886413 L5.76255211,11.8091867 C5.76255211,10.3354517 6.95772086,9.14304102 8.42869781,9.14304102 L26.7258122,9.14304102 C28.1995472,9.14304102 29.3919579,10.3382098 29.3919579,11.8091867 L29.3919579,11.886413 C29.3910385,13.360148 28.1967891,14.5525587 26.7230541,14.5525587 Z M26.7230541,25.8671294 L8.42869781,25.8671294 C6.95496281,25.8671294 5.76255211,24.6719606 5.76255211,23.2009837 L5.76255211,23.1237574 C5.76255211,21.6500224 6.95772086,20.4576117 8.42869781,20.4576117 L26.7258122,20.4576117 C28.1995472,20.4576117 29.3919579,21.6527805 29.3919579,23.1237574 L29.3919579,23.2009837 C29.3910385,24.6719606 28.1967891,25.8671294 26.7230541,25.8671294 Z" id="形状" fill="#FFFFFF"></path>
                    <path d="M20.6773389,37.1817001 L8.42869781,37.1817001 C6.95496281,37.1817001 5.76255211,35.9865313 5.76255211,34.5155544 L5.76255211,34.4383281 C5.76255211,32.9645931 6.95772086,31.7721824 8.42869781,31.7721824 L20.6764195,31.7721824 C22.1501545,31.7721824 23.3425652,32.9673512 23.3425652,34.4383281 L23.3425652,34.5155544 C23.3425652,35.9865313 22.1510739,37.1817001 20.6773389,37.1817001 L20.6773389,37.1817001 Z" id="路径" fill="#1A89FA"></path>
                </g>
            </g>
        </g>
    </g>
</svg>