<?xml version="1.0" encoding="UTF-8"?>
<svg width="70px" height="70px" viewBox="0 0 70 70" version="1.1" xmlns="http://www.w3.org/2000/svg" xmlns:xlink="http://www.w3.org/1999/xlink">
    <!-- Generator: Sketch 57 (83077) - https://sketch.com -->
    <title>思科ipv6实验室部署统计信息_slice</title>
    <desc>Created with Sketch.</desc>
    <g id="清华主页" stroke="none" stroke-width="1" fill="none" fill-rule="evenodd">
        <g id="画板" transform="translate(-465.000000, -225.000000)" fill-rule="nonzero">
            <g id="思科IPv6实验室部署统计信息" transform="translate(465.000000, 225.000000)">
                <rect id="矩形" fill="#000000" opacity="0" x="0" y="0" width="70" height="70"></rect>
                <g id="编组-5" transform="translate(9.000000, 11.000000)">
                    <path d="M14.2408954,41.5652114 C14.2408954,42.2666835 13.6699725,42.8422033 12.967581,42.8422033 L7.37327188,42.8422033 C6.66996102,42.8403645 6.09995742,42.2685223 6.09995742,41.5652114 L6.09995742,25.7586449 C6.09995742,25.0571728 6.67088031,24.481653 7.37327188,24.481653 L12.9629842,24.481653 C13.6644563,24.481653 14.2362986,25.0525759 14.2362986,25.7586449 L14.2362986,41.5652114 L14.2408954,41.5652114 L14.2408954,41.5652114 Z" id="路径" fill="#1989FA"></path>
                    <path d="M30.5089809,41.5652114 C30.5089809,42.2666835 29.938058,42.8385259 29.2356666,42.8385259 L23.6459542,42.8385259 C22.9435627,42.8366871 22.3753979,42.267603 22.3726398,41.5652114 L22.3726398,1.27699188 C22.3726398,0.575519766 22.9435627,1.49213975e-13 23.6459542,1.49213975e-13 L29.2356666,1.49213975e-13 C29.9371387,1.49213975e-13 30.5089809,0.570922891 30.5089809,1.27699188 L30.5089809,41.5652114 Z" id="路径" fill="#C0DCFE"></path>
                    <path d="M46.780744,41.5652114 C46.780744,42.2666835 46.2098211,42.8422033 45.5074295,42.8422033 L39.9177172,42.8422033 C39.2144063,42.8403645 38.6444028,42.2685223 38.6444028,41.5652114 L38.6444028,13.5173587 C38.6444028,12.8158866 39.2153257,12.2403669 39.9131204,12.2403669 L45.5074295,12.2403669 C46.2089016,12.2403669 46.780744,12.8112898 46.780744,13.5173587 L46.780744,41.5652114 L46.780744,41.5652114 Z" id="路径" fill="#1A89FA"></path>
                    <path d="M1.27331438,48.963306 C0.570003516,48.9614673 6.60804744e-13,48.389625 6.60804744e-13,47.6863142 L6.60804744e-13,46.1601756 C6.60804744e-13,45.4541067 0.570922891,44.8831837 1.27331438,44.8831837 L51.6119838,44.8831837 C52.3051817,44.8831837 52.8807014,45.4541066 52.8807014,46.1601756 L52.8807014,47.6863142 C52.8807014,48.3877863 52.3097785,48.963306 51.6119838,48.963306 L1.27331438,48.963306 Z" id="路径" fill="#C0DCFE"></path>
                </g>
            </g>
        </g>
    </g>
</svg>